<mxfile host="Electron" modified="2024-08-07T00:19:56.025Z" agent="Mozilla/5.0 (Windows NT 10.0; Win64; x64) AppleWebKit/537.36 (KHTML, like Gecko) draw.io/21.6.5 Chrome/114.0.5735.243 Electron/25.3.1 Safari/537.36" etag="k23HkAjCht0O_WPheNx7" version="21.6.5" type="device">
  <diagram name="PÃ¡gina-1" id="7se4z26dx94i_YVs5O2G">
    <mxGraphModel dx="1780" dy="1535" grid="1" gridSize="10" guides="1" tooltips="1" connect="1" arrows="1" fold="1" page="1" pageScale="1" pageWidth="827" pageHeight="1169" math="0" shadow="0">
      <root>
        <mxCell id="0" />
        <mxCell id="1" parent="0" />
        <mxCell id="EczidAEKz68ecBzpt7t3-57" style="edgeStyle=orthogonalEdgeStyle;rounded=0;sketch=1;hachureGap=4;jiggle=2;curveFitting=1;orthogonalLoop=1;jettySize=auto;html=1;exitX=0;exitY=0.25;exitDx=0;exitDy=0;fontFamily=Architects Daughter;fontSource=https%3A%2F%2Ffonts.googleapis.com%2Fcss%3Ffamily%3DArchitects%2BDaughter;fontSize=16;" edge="1" parent="1" source="EczidAEKz68ecBzpt7t3-15">
          <mxGeometry relative="1" as="geometry">
            <mxPoint x="1370" y="169.90476190476193" as="targetPoint" />
          </mxGeometry>
        </mxCell>
        <mxCell id="EczidAEKz68ecBzpt7t3-15" value="Cid10" style="swimlane;whiteSpace=wrap;html=1;sketch=1;hachureGap=4;jiggle=2;curveFitting=1;fontFamily=Architects Daughter;fontSource=https%3A%2F%2Ffonts.googleapis.com%2Fcss%3Ffamily%3DArchitects%2BDaughter;fontSize=16;" vertex="1" parent="1">
          <mxGeometry x="1425" y="120" width="190" height="200" as="geometry" />
        </mxCell>
        <mxCell id="EczidAEKz68ecBzpt7t3-16" value="&lt;span style=&quot;font-size: 16px;&quot;&gt;+ &lt;u&gt;codigo&lt;/u&gt; : string&lt;br style=&quot;font-size: 16px;&quot;&gt;+ &lt;u&gt;descricao&lt;/u&gt; : string&lt;/span&gt;" style="text;html=1;align=left;verticalAlign=middle;resizable=0;points=[];autosize=1;strokeColor=none;fillColor=none;fontSize=16;fontFamily=Architects Daughter;" vertex="1" parent="EczidAEKz68ecBzpt7t3-15">
          <mxGeometry x="5" y="35" width="170" height="50" as="geometry" />
        </mxCell>
        <mxCell id="EczidAEKz68ecBzpt7t3-17" value="" style="endArrow=none;html=1;rounded=0;sketch=1;hachureGap=4;jiggle=2;curveFitting=1;fontFamily=Architects Daughter;fontSource=https%3A%2F%2Ffonts.googleapis.com%2Fcss%3Ffamily%3DArchitects%2BDaughter;fontSize=16;entryX=0;entryY=0.5;entryDx=0;entryDy=0;exitX=1;exitY=0.5;exitDx=0;exitDy=0;" edge="1" parent="EczidAEKz68ecBzpt7t3-15">
          <mxGeometry width="50" height="50" relative="1" as="geometry">
            <mxPoint x="186" y="100" as="sourcePoint" />
            <mxPoint y="100" as="targetPoint" />
          </mxGeometry>
        </mxCell>
        <mxCell id="EczidAEKz68ecBzpt7t3-18" value="incluir()&lt;br style=&quot;font-size: 16px;&quot;&gt;excluir()&lt;br style=&quot;font-size: 16px;&quot;&gt;alterar()" style="text;html=1;align=left;verticalAlign=middle;resizable=0;points=[];autosize=1;strokeColor=none;fillColor=none;fontSize=16;fontFamily=Architects Daughter;" vertex="1" parent="EczidAEKz68ecBzpt7t3-15">
          <mxGeometry x="10" y="110" width="90" height="70" as="geometry" />
        </mxCell>
        <mxCell id="EczidAEKz68ecBzpt7t3-41" style="edgeStyle=orthogonalEdgeStyle;rounded=0;sketch=1;hachureGap=4;jiggle=2;curveFitting=1;orthogonalLoop=1;jettySize=auto;html=1;exitX=0.5;exitY=0;exitDx=0;exitDy=0;entryX=0.5;entryY=1;entryDx=0;entryDy=0;fontFamily=Architects Daughter;fontSource=https%3A%2F%2Ffonts.googleapis.com%2Fcss%3Ffamily%3DArchitects%2BDaughter;fontSize=16;" edge="1" parent="1" source="EczidAEKz68ecBzpt7t3-19" target="EczidAEKz68ecBzpt7t3-8">
          <mxGeometry relative="1" as="geometry" />
        </mxCell>
        <mxCell id="EczidAEKz68ecBzpt7t3-19" value="Base" style="swimlane;whiteSpace=wrap;html=1;sketch=1;hachureGap=4;jiggle=2;curveFitting=1;fontFamily=Architects Daughter;fontSource=https%3A%2F%2Ffonts.googleapis.com%2Fcss%3Ffamily%3DArchitects%2BDaughter;fontSize=16;" vertex="1" parent="1">
          <mxGeometry x="880" y="710" width="225" height="240" as="geometry" />
        </mxCell>
        <mxCell id="EczidAEKz68ecBzpt7t3-21" value="" style="endArrow=none;html=1;rounded=0;sketch=1;hachureGap=4;jiggle=2;curveFitting=1;fontFamily=Architects Daughter;fontSource=https%3A%2F%2Ffonts.googleapis.com%2Fcss%3Ffamily%3DArchitects%2BDaughter;fontSize=16;entryX=0;entryY=0.5;entryDx=0;entryDy=0;" edge="1" parent="EczidAEKz68ecBzpt7t3-19">
          <mxGeometry width="50" height="50" relative="1" as="geometry">
            <mxPoint x="225" y="140" as="sourcePoint" />
            <mxPoint y="140" as="targetPoint" />
          </mxGeometry>
        </mxCell>
        <mxCell id="EczidAEKz68ecBzpt7t3-20" value="+ cidade : string&lt;br style=&quot;font-size: 16px;&quot;&gt;+ estado : string&lt;br style=&quot;font-size: 16px;&quot;&gt;+ telefone : long&lt;br style=&quot;font-size: 16px;&quot;&gt;+ apoiador : funcionarioID" style="text;html=1;align=left;verticalAlign=middle;resizable=0;points=[];autosize=1;strokeColor=none;fillColor=none;fontSize=16;fontFamily=Architects Daughter;" vertex="1" parent="EczidAEKz68ecBzpt7t3-19">
          <mxGeometry x="6" y="30" width="210" height="90" as="geometry" />
        </mxCell>
        <mxCell id="EczidAEKz68ecBzpt7t3-22" value="incluir()&lt;br style=&quot;font-size: 16px;&quot;&gt;excluir()&lt;br style=&quot;font-size: 16px;&quot;&gt;alterar()" style="text;html=1;align=left;verticalAlign=middle;resizable=0;points=[];autosize=1;strokeColor=none;fillColor=none;fontSize=16;fontFamily=Architects Daughter;" vertex="1" parent="EczidAEKz68ecBzpt7t3-19">
          <mxGeometry x="6" y="150" width="90" height="70" as="geometry" />
        </mxCell>
        <mxCell id="EczidAEKz68ecBzpt7t3-23" value="Atestado" style="swimlane;whiteSpace=wrap;html=1;sketch=1;hachureGap=4;jiggle=2;curveFitting=1;fontFamily=Architects Daughter;fontSource=https%3A%2F%2Ffonts.googleapis.com%2Fcss%3Ffamily%3DArchitects%2BDaughter;fontSize=16;" vertex="1" parent="1">
          <mxGeometry x="1170" y="40" width="199" height="370" as="geometry" />
        </mxCell>
        <mxCell id="EczidAEKz68ecBzpt7t3-24" value="" style="endArrow=none;html=1;rounded=0;sketch=1;hachureGap=4;jiggle=2;curveFitting=1;fontFamily=Architects Daughter;fontSource=https%3A%2F%2Ffonts.googleapis.com%2Fcss%3Ffamily%3DArchitects%2BDaughter;fontSize=16;entryX=0;entryY=0.5;entryDx=0;entryDy=0;exitX=1;exitY=0.75;exitDx=0;exitDy=0;" edge="1" parent="EczidAEKz68ecBzpt7t3-23" source="EczidAEKz68ecBzpt7t3-23">
          <mxGeometry width="50" height="50" relative="1" as="geometry">
            <mxPoint x="186" y="279" as="sourcePoint" />
            <mxPoint y="279" as="targetPoint" />
          </mxGeometry>
        </mxCell>
        <mxCell id="EczidAEKz68ecBzpt7t3-25" value="- funcionarioID&lt;br style=&quot;font-size: 16px;&quot;&gt;+ nomeMedico : string&lt;br style=&quot;font-size: 16px;&quot;&gt;+ dataAtestado : date&lt;br style=&quot;font-size: 16px;&quot;&gt;+ dataFinal : date&lt;br style=&quot;font-size: 16px;&quot;&gt;+ diasAfast : int&lt;br style=&quot;font-size: 16px;&quot;&gt;&lt;span style=&quot;font-size: 16px;&quot;&gt;- cid10ID&lt;br style=&quot;font-size: 16px;&quot;&gt;+ &lt;u style=&quot;font-size: 16px;&quot;&gt;cat&lt;/u&gt; : boolean&lt;/span&gt;&lt;br style=&quot;font-size: 16px;&quot;&gt;&lt;span style=&quot;font-size: 16px;&quot;&gt;- tipoLicencaID&lt;/span&gt;" style="text;html=1;align=left;verticalAlign=middle;resizable=0;points=[];autosize=1;strokeColor=none;fillColor=none;fontSize=16;fontFamily=Architects Daughter;" vertex="1" parent="EczidAEKz68ecBzpt7t3-23">
          <mxGeometry x="4" y="30" width="190" height="170" as="geometry" />
        </mxCell>
        <mxCell id="EczidAEKz68ecBzpt7t3-26" value="incluir()&lt;br style=&quot;font-size: 16px;&quot;&gt;excluir()&lt;br style=&quot;font-size: 16px;&quot;&gt;alterar()" style="text;html=1;align=left;verticalAlign=middle;resizable=0;points=[];autosize=1;strokeColor=none;fillColor=none;fontSize=16;fontFamily=Architects Daughter;" vertex="1" parent="EczidAEKz68ecBzpt7t3-23">
          <mxGeometry x="9" y="290" width="90" height="70" as="geometry" />
        </mxCell>
        <mxCell id="EczidAEKz68ecBzpt7t3-27" value="MetodosGenericos" style="swimlane;whiteSpace=wrap;html=1;sketch=1;hachureGap=4;jiggle=2;curveFitting=1;fontFamily=Architects Daughter;fontSource=https%3A%2F%2Ffonts.googleapis.com%2Fcss%3Ffamily%3DArchitects%2BDaughter;fontSize=16;fillColor=#bac8d3;strokeColor=#23445d;" vertex="1" parent="1">
          <mxGeometry x="1160" y="726" width="190" height="180" as="geometry" />
        </mxCell>
        <mxCell id="EczidAEKz68ecBzpt7t3-30" value="incluir()&lt;br style=&quot;font-size: 16px;&quot;&gt;excluir()&lt;br style=&quot;font-size: 16px;&quot;&gt;alterar()" style="text;html=1;align=left;verticalAlign=middle;resizable=0;points=[];autosize=1;strokeColor=none;fillColor=none;fontSize=16;fontFamily=Architects Daughter;" vertex="1" parent="EczidAEKz68ecBzpt7t3-27">
          <mxGeometry x="5" y="30" width="90" height="70" as="geometry" />
        </mxCell>
        <mxCell id="EczidAEKz68ecBzpt7t3-31" value="RegrasDeNegocio" style="swimlane;whiteSpace=wrap;html=1;sketch=1;hachureGap=4;jiggle=2;curveFitting=1;fontFamily=Architects Daughter;fontSource=https%3A%2F%2Ffonts.googleapis.com%2Fcss%3Ffamily%3DArchitects%2BDaughter;fontSize=16;fillColor=#bac8d3;strokeColor=#23445d;" vertex="1" parent="1">
          <mxGeometry x="1160" y="946" width="190" height="180" as="geometry" />
        </mxCell>
        <mxCell id="EczidAEKz68ecBzpt7t3-32" value="checaDuplicado()&lt;br style=&quot;font-size: 16px;&quot;&gt;checaDataAtestado()&lt;br style=&quot;font-size: 16px;&quot;&gt;checaSomaAtestado()" style="text;html=1;align=left;verticalAlign=middle;resizable=0;points=[];autosize=1;strokeColor=none;fillColor=none;fontSize=16;fontFamily=Architects Daughter;" vertex="1" parent="EczidAEKz68ecBzpt7t3-31">
          <mxGeometry x="5" y="33" width="180" height="70" as="geometry" />
        </mxCell>
        <mxCell id="EczidAEKz68ecBzpt7t3-33" value="Relatorios" style="swimlane;whiteSpace=wrap;html=1;sketch=1;hachureGap=4;jiggle=2;curveFitting=1;fontFamily=Architects Daughter;fontSource=https%3A%2F%2Ffonts.googleapis.com%2Fcss%3Ffamily%3DArchitects%2BDaughter;fontSize=16;fillColor=#bac8d3;strokeColor=#23445d;" vertex="1" parent="1">
          <mxGeometry x="1390" y="726" width="220" height="400" as="geometry" />
        </mxCell>
        <mxCell id="EczidAEKz68ecBzpt7t3-34" value="atestadoData&lt;br style=&quot;font-size: 16px;&quot;&gt;atestadoFuncionario&lt;br style=&quot;font-size: 16px;&quot;&gt;atestadoCid&lt;br style=&quot;font-size: 16px;&quot;&gt;atestadoBase&lt;br style=&quot;font-size: 16px;&quot;&gt;atestadoFuncao" style="text;html=1;align=left;verticalAlign=middle;resizable=0;points=[];autosize=1;strokeColor=none;fillColor=none;fontSize=16;fontFamily=Architects Daughter;" vertex="1" parent="EczidAEKz68ecBzpt7t3-33">
          <mxGeometry x="10" y="30" width="170" height="110" as="geometry" />
        </mxCell>
        <mxCell id="EczidAEKz68ecBzpt7t3-36" value="" style="group;fontSize=16;" vertex="1" connectable="0" parent="1">
          <mxGeometry x="895" y="170" width="226" height="390" as="geometry" />
        </mxCell>
        <mxCell id="EczidAEKz68ecBzpt7t3-8" value="Funcionario" style="swimlane;whiteSpace=wrap;html=1;sketch=1;hachureGap=4;jiggle=2;curveFitting=1;fontFamily=Architects Daughter;fontSource=https%3A%2F%2Ffonts.googleapis.com%2Fcss%3Ffamily%3DArchitects%2BDaughter;fontSize=16;" vertex="1" parent="EczidAEKz68ecBzpt7t3-36">
          <mxGeometry x="-15" width="226" height="390" as="geometry" />
        </mxCell>
        <mxCell id="EczidAEKz68ecBzpt7t3-9" value="+ cpf : long&lt;br style=&quot;font-size: 16px;&quot;&gt;+ codMatricula : string&lt;br style=&quot;font-size: 16px;&quot;&gt;+ nome : string&lt;br style=&quot;font-size: 16px;&quot;&gt;+ telefone : long&lt;br style=&quot;font-size: 16px;&quot;&gt;+ email : string&lt;br style=&quot;font-size: 16px;&quot;&gt;- baseID&lt;br style=&quot;font-size: 16px;&quot;&gt;- funcaoID&lt;br style=&quot;font-size: 16px;&quot;&gt;+ tipoAdmissao : string&lt;br style=&quot;font-size: 16px;&quot;&gt;+ dataAdmissao : date&lt;br style=&quot;font-size: 16px;&quot;&gt;+ cargaHorariaMensal : int" style="text;html=1;align=left;verticalAlign=middle;resizable=0;points=[];autosize=1;strokeColor=none;fillColor=none;fontSize=16;fontFamily=Architects Daughter;spacing=1;" vertex="1" parent="EczidAEKz68ecBzpt7t3-8">
          <mxGeometry x="2" y="32" width="220" height="200" as="geometry" />
        </mxCell>
        <mxCell id="EczidAEKz68ecBzpt7t3-14" value="incluir()&lt;br style=&quot;font-size: 16px;&quot;&gt;excluir()&lt;br style=&quot;font-size: 16px;&quot;&gt;alterar()" style="text;html=1;align=left;verticalAlign=middle;resizable=0;points=[];autosize=1;strokeColor=none;fillColor=none;fontSize=16;fontFamily=Architects Daughter;" vertex="1" parent="EczidAEKz68ecBzpt7t3-8">
          <mxGeometry x="6" y="300" width="90" height="70" as="geometry" />
        </mxCell>
        <mxCell id="EczidAEKz68ecBzpt7t3-13" value="" style="endArrow=none;html=1;rounded=0;sketch=1;hachureGap=4;jiggle=2;curveFitting=1;fontFamily=Architects Daughter;fontSource=https%3A%2F%2Ffonts.googleapis.com%2Fcss%3Ffamily%3DArchitects%2BDaughter;fontSize=16;entryX=0;entryY=0.75;entryDx=0;entryDy=0;exitX=1;exitY=0.75;exitDx=0;exitDy=0;" edge="1" parent="EczidAEKz68ecBzpt7t3-36" source="EczidAEKz68ecBzpt7t3-8" target="EczidAEKz68ecBzpt7t3-8">
          <mxGeometry width="50" height="50" relative="1" as="geometry">
            <mxPoint x="186" y="294" as="sourcePoint" />
            <mxPoint y="294" as="targetPoint" />
          </mxGeometry>
        </mxCell>
        <mxCell id="EczidAEKz68ecBzpt7t3-42" style="edgeStyle=orthogonalEdgeStyle;rounded=0;sketch=1;hachureGap=4;jiggle=2;curveFitting=1;orthogonalLoop=1;jettySize=auto;html=1;exitX=0.5;exitY=0;exitDx=0;exitDy=0;entryX=0;entryY=0.25;entryDx=0;entryDy=0;fontFamily=Architects Daughter;fontSource=https%3A%2F%2Ffonts.googleapis.com%2Fcss%3Ffamily%3DArchitects%2BDaughter;fontSize=16;" edge="1" parent="1" source="EczidAEKz68ecBzpt7t3-8" target="EczidAEKz68ecBzpt7t3-23">
          <mxGeometry relative="1" as="geometry" />
        </mxCell>
        <mxCell id="EczidAEKz68ecBzpt7t3-58" style="edgeStyle=orthogonalEdgeStyle;rounded=0;sketch=1;hachureGap=4;jiggle=2;curveFitting=1;orthogonalLoop=1;jettySize=auto;html=1;exitX=0;exitY=0.25;exitDx=0;exitDy=0;fontFamily=Architects Daughter;fontSource=https%3A%2F%2Ffonts.googleapis.com%2Fcss%3Ffamily%3DArchitects%2BDaughter;fontSize=16;" edge="1" parent="1" source="EczidAEKz68ecBzpt7t3-43">
          <mxGeometry relative="1" as="geometry">
            <mxPoint x="1370" y="220" as="targetPoint" />
            <Array as="points">
              <mxPoint x="1390" y="390" />
              <mxPoint x="1390" y="220" />
            </Array>
          </mxGeometry>
        </mxCell>
        <mxCell id="EczidAEKz68ecBzpt7t3-43" value="TipoLicenca" style="swimlane;whiteSpace=wrap;html=1;sketch=1;hachureGap=4;jiggle=2;curveFitting=1;fontFamily=Architects Daughter;fontSource=https%3A%2F%2Ffonts.googleapis.com%2Fcss%3Ffamily%3DArchitects%2BDaughter;fontSize=16;" vertex="1" parent="1">
          <mxGeometry x="1425" y="340" width="195" height="200" as="geometry" />
        </mxCell>
        <mxCell id="EczidAEKz68ecBzpt7t3-44" value="+ &lt;u&gt;id&lt;/u&gt; : int&lt;br&gt;+ &lt;u&gt;descricao&lt;/u&gt; : string" style="text;html=1;align=left;verticalAlign=middle;resizable=0;points=[];autosize=1;strokeColor=none;fillColor=none;fontSize=16;fontFamily=Architects Daughter;" vertex="1" parent="EczidAEKz68ecBzpt7t3-43">
          <mxGeometry x="5" y="32" width="170" height="50" as="geometry" />
        </mxCell>
        <mxCell id="EczidAEKz68ecBzpt7t3-45" value="" style="endArrow=none;html=1;rounded=0;sketch=1;hachureGap=4;jiggle=2;curveFitting=1;fontFamily=Architects Daughter;fontSource=https%3A%2F%2Ffonts.googleapis.com%2Fcss%3Ffamily%3DArchitects%2BDaughter;fontSize=16;entryX=0;entryY=0.5;entryDx=0;entryDy=0;" edge="1" parent="EczidAEKz68ecBzpt7t3-43">
          <mxGeometry width="50" height="50" relative="1" as="geometry">
            <mxPoint x="195" y="100" as="sourcePoint" />
            <mxPoint y="100" as="targetPoint" />
          </mxGeometry>
        </mxCell>
        <mxCell id="EczidAEKz68ecBzpt7t3-46" value="incluir()&lt;br style=&quot;font-size: 16px;&quot;&gt;excluir()&lt;br style=&quot;font-size: 16px;&quot;&gt;alterar()" style="text;html=1;align=left;verticalAlign=middle;resizable=0;points=[];autosize=1;strokeColor=none;fillColor=none;fontSize=16;fontFamily=Architects Daughter;" vertex="1" parent="EczidAEKz68ecBzpt7t3-43">
          <mxGeometry x="5" y="110" width="90" height="70" as="geometry" />
        </mxCell>
        <mxCell id="EczidAEKz68ecBzpt7t3-55" style="edgeStyle=orthogonalEdgeStyle;rounded=0;sketch=1;hachureGap=4;jiggle=2;curveFitting=1;orthogonalLoop=1;jettySize=auto;html=1;exitX=0;exitY=0.25;exitDx=0;exitDy=0;fontFamily=Architects Daughter;fontSource=https%3A%2F%2Ffonts.googleapis.com%2Fcss%3Ffamily%3DArchitects%2BDaughter;fontSize=16;" edge="1" parent="1" source="EczidAEKz68ecBzpt7t3-51">
          <mxGeometry relative="1" as="geometry">
            <mxPoint x="1110" y="310" as="targetPoint" />
            <Array as="points">
              <mxPoint x="1140" y="520" />
              <mxPoint x="1140" y="310" />
            </Array>
          </mxGeometry>
        </mxCell>
        <mxCell id="EczidAEKz68ecBzpt7t3-51" value="Funcao" style="swimlane;whiteSpace=wrap;html=1;sketch=1;hachureGap=4;jiggle=2;curveFitting=1;fontFamily=Architects Daughter;fontSource=https%3A%2F%2Ffonts.googleapis.com%2Fcss%3Ffamily%3DArchitects%2BDaughter;fontSize=16;" vertex="1" parent="1">
          <mxGeometry x="1170" y="470" width="195" height="200" as="geometry" />
        </mxCell>
        <mxCell id="EczidAEKz68ecBzpt7t3-52" value="+ &lt;u&gt;id&lt;/u&gt; : int&lt;br&gt;+ &lt;u&gt;descricao&lt;/u&gt; : string" style="text;html=1;align=left;verticalAlign=middle;resizable=0;points=[];autosize=1;strokeColor=none;fillColor=none;fontSize=16;fontFamily=Architects Daughter;" vertex="1" parent="EczidAEKz68ecBzpt7t3-51">
          <mxGeometry x="5" y="25" width="170" height="50" as="geometry" />
        </mxCell>
        <mxCell id="EczidAEKz68ecBzpt7t3-53" value="" style="endArrow=none;html=1;rounded=0;sketch=1;hachureGap=4;jiggle=2;curveFitting=1;fontFamily=Architects Daughter;fontSource=https%3A%2F%2Ffonts.googleapis.com%2Fcss%3Ffamily%3DArchitects%2BDaughter;fontSize=16;entryX=0;entryY=0.5;entryDx=0;entryDy=0;" edge="1" parent="EczidAEKz68ecBzpt7t3-51">
          <mxGeometry width="50" height="50" relative="1" as="geometry">
            <mxPoint x="195" y="100" as="sourcePoint" />
            <mxPoint y="100" as="targetPoint" />
          </mxGeometry>
        </mxCell>
        <mxCell id="EczidAEKz68ecBzpt7t3-54" value="incluir()&lt;br style=&quot;font-size: 16px;&quot;&gt;excluir()&lt;br style=&quot;font-size: 16px;&quot;&gt;alterar()" style="text;html=1;align=left;verticalAlign=middle;resizable=0;points=[];autosize=1;strokeColor=none;fillColor=none;fontSize=16;fontFamily=Architects Daughter;" vertex="1" parent="EczidAEKz68ecBzpt7t3-51">
          <mxGeometry x="5" y="110" width="90" height="70" as="geometry" />
        </mxCell>
        <mxCell id="EczidAEKz68ecBzpt7t3-62" value="" style="swimlane;startSize=0;sketch=1;hachureGap=4;jiggle=2;curveFitting=1;fontFamily=Architects Daughter;fontSource=https%3A%2F%2Ffonts.googleapis.com%2Fcss%3Ffamily%3DArchitects%2BDaughter;fontSize=20;" vertex="1" parent="1">
          <mxGeometry x="1140" y="711" width="490" height="430" as="geometry" />
        </mxCell>
      </root>
    </mxGraphModel>
  </diagram>
</mxfile>
